<svg xmlns="http://www.w3.org/2000/svg" width="15" height="12" viewBox="0 0 15 12">
    <path fill="#0CADFE" fill-rule="evenodd" d="M12.49 7.949a1.136 1.136 0 1 1 .002-2.272 1.136 1.136 0 0 1-.001 2.272zm-10.219 0a1.136 1.136 0 1 1 0-2.272 1.136 1.136 0 0 1 0 2.272zm1.476-6.813h7.268l1.192 2.838H2.555l1.192-2.838zm11.015 4.542a1.704 1.704 0 0 0-1.306-1.647L11.878.352A.567.567 0 0 0 11.355 0H3.407a.566.566 0 0 0-.5.318L1.306 4.02A1.703 1.703 0 0 0 0 5.678v3.974h1.136v1.136a1.136 1.136 0 0 0 2.27 0V9.652h7.95v1.136a1.136 1.136 0 0 0 2.27 0V9.652h1.136V5.678z"/>
</svg>
